<?xml version="1.0" encoding="UTF-8" standalone="no"?>
<!-- Created with Inkscape (http://www.inkscape.org/) -->

<svg
   width="25.4mm"
   height="25.953497mm"
   viewBox="0 0 25.4 25.953497"
   version="1.1"
   id="svg1"
   xml:space="preserve"
   xmlns="http://www.w3.org/2000/svg"
   xmlns:svg="http://www.w3.org/2000/svg"><defs
     id="defs1" /><g
     id="layer1"
     transform="translate(-86.101257,-119.85394)"><g
       id="g5"
       transform="translate(1.0024957,7.4630235)"><rect
         style="fill:#ffffff;stroke-width:0.405612"
         id="rect5"
         width="23.0574"
         height="25.953501"
         x="86.437408"
         y="112.39091" /><g
         style="fill:none"
         id="g1"
         transform="matrix(0.26458333,0,0,0.26458333,85.098763,112.64521)"><path
           id="path1"
           d="M 0,-1.2598425e-5 V 82.039051 C 0.28028618,80.066168 0.58152798,78.096206 0.88085939,76.126941 1.6335183,71.400756 2.3883406,66.67641 3.015625,61.931629 l 0.1835938,-1.451172 c 0.2454463,-1.938104 1.2927779,-2.851991 2.2832031,-2.849609 1.1224857,0.0027 2.1708459,1.182433 1.8925782,3.378906 -0.062287,0.491414 -0.1232981,0.983195 -0.1855469,1.474609 -0.6312,4.771654 -1.3888365,9.522484 -2.1464844,14.275391 -0.8329398,5.479786 -1.7215055,10.961129 -1.9667969,16.507813 -0.054159,1.14564 -0.086864,1.77879 -0.109375,2.732422 H 96.000001 V -1.2598425e-5 Z" /><path
           d="M 48,4 12,20 V 44 C 12,66.2 27.36,86.96 48,92 68.64,86.96 84,66.2 84,44 V 20 Z m 0,8.72 28,12.48 V 44 C 76,62.68 63.48,79.84 48,84.76 32.52,79.84 20,62.68 20,44 V 25.2 Z M 36,46 V 36 h 8 v 8 h -8 z m 16,0 V 36 h 8 v 8 h -8 z m 0,8 h 8 v 8 h -8 z m -16,0 h 8 v 8 h -8 z"
           fill="#004225"
           id="path2" /><path
           d="M 48,12 16,28 v 8 H 80 V 28 Z M 24,40 h 8 v 8 h -8 z m 16,0 h 16 v 8 H 40 Z m 24,0 h 8 v 8 h -8 z"
           fill="#004225"
           id="path3" /></g></g></g></svg>
