<svg width="96" height="96" viewBox="0 0 96 96" fill="none" xmlns="http://www.w3.org/2000/svg">
<path d="M96 96H0V0H96V96Z" stroke="#E5E7EB"/>
<path d="M48 4L12 20V44C12 66.2 27.36 86.96 48 92C68.64 86.96 84 66.2 84 44V20L48 4ZM48 12.72L76 25.2V44C76 62.68 63.48 79.84 48 84.76C32.52 79.84 20 62.68 20 44V25.2L48 12.72ZM36 46V36H44V44H36V46ZM52 46V36H60V44H52V46ZM52 54H60V62H52V54ZM36 54H44V62H36V54Z" fill="#004225"/>
<path d="M48 12L16 28V36H80V28L48 12ZM24 40H32V48H24V40ZM40 40H56V48H40V40ZM64 40H72V48H64V40Z" fill="#004225"/>
</svg>
